<svg width="1154" height="1080" viewBox="0 0 1154 1080" fill="none" xmlns="http://www.w3.org/2000/svg">
<path d="M103.234 806.143C94.4176 768.738 88.6855 725.119 95.6952 687.163C97.6159 676.182 100.959 665.382 105.663 654.964C110.048 645.219 116.179 636.081 123.829 627.888C144.187 606.458 168.744 588.791 194.926 572.641C203.487 567.368 212.214 562.258 221.024 557.23C235.409 549.026 250.014 541.043 264.436 532.952C266.609 531.746 268.754 530.541 270.893 529.322L270.899 529.311C274.377 527.357 277.831 525.385 281.262 523.396C281.87 523.048 282.467 522.696 283.081 522.338C289.554 518.577 295.995 514.696 302.403 510.694C303.179 510.2 303.966 509.711 304.742 509.217C317.089 501.454 328.982 493.165 340.376 484.383C347.81 478.595 354.955 472.583 361.682 466.32L361.688 466.31C364.255 463.914 366.77 461.485 369.207 459.013C376.569 451.622 383.295 443.787 389.329 435.574C397.669 424.266 404.312 412.131 409.096 399.467C409.418 398.609 409.734 397.762 410.032 396.895C422.129 362.291 418.568 325.018 431.966 290.746C432.401 289.634 432.842 288.537 433.325 287.443C433.529 286.975 433.721 286.503 433.937 286.039C438.275 276.253 443.84 266.872 450.533 258.066C469.127 233.422 495.683 212.714 524.021 195.8C590.275 156.26 670.342 134.459 749.691 133.157C763.295 132.925 776.881 133.307 790.393 134.301C827.906 136.976 864.518 144.667 898.91 157.096C1018.07 200.515 1103.69 304.843 1105.85 417.099C1108.01 529.365 1023.16 642.873 900.113 684.779C825.469 710.199 743.735 709.886 664.822 720.155C585.92 730.428 501.779 755.941 458.529 814.29C436.497 844.014 426.734 880.3 398.673 906.082C383.128 920.355 363.272 929.962 341.701 935.528C327.103 939.233 312.047 941.227 296.95 941.454C286.008 941.669 275.097 941.051 264.343 939.609C262.361 939.346 260.395 939.053 258.435 938.749C179.587 926.31 119.132 873.52 103.234 806.143Z" fill="#F2F2F2"/>
<g clip-path="url(#clip0_5_551)">
<path d="M453.476 520.998H370.922C368.089 520.998 365.785 519.013 365.785 516.574C365.785 514.134 368.089 512.149 370.922 512.149H453.476C456.308 512.149 458.612 514.134 458.612 516.574C458.612 519.013 456.308 520.998 453.476 520.998Z" fill="#E6E7E8"/>
<path d="M517.902 535.973H370.922C368.089 535.973 365.785 533.988 365.785 531.549C365.785 529.109 368.089 527.124 370.922 527.124H517.902C520.734 527.124 523.038 529.109 523.038 531.549C523.038 533.988 520.734 535.973 517.902 535.973Z" fill="#E6E7E8"/>
<path d="M517.902 550.814H370.922C368.089 550.814 365.785 548.829 365.785 546.389C365.785 543.95 368.089 541.965 370.922 541.965H517.902C520.734 541.965 523.038 543.95 523.038 546.389C523.038 548.829 520.734 550.814 517.902 550.814Z" fill="#E6E7E8"/>
<path d="M502.609 634.988L504.397 636.445C523.912 618.661 557.818 616.862 585.84 631.861L576.486 636.932C583.607 636.593 593.167 638.178 600.273 640.118C596.354 634.655 592.233 627.057 590.873 621.027L587.403 630.206C558.337 614.522 522.992 616.413 502.609 634.988V634.988Z" fill="#3F3D56"/>
<path d="M522.725 546.694C522.725 549.032 520.517 550.934 517.802 550.934H453.811C451.097 550.934 448.889 549.032 448.889 546.694C448.889 544.356 451.097 542.454 453.811 542.454H517.802C520.517 542.454 522.725 544.356 522.725 546.694Z" fill="#42CE9F"/>
<path d="M234.582 782.885C233.608 779.963 231.94 777.471 229.954 775.693L222.738 747.359L207.01 750.678L216.023 779.062C215.43 781.464 215.549 784.331 216.523 787.253C218.748 793.928 224.595 798.361 229.582 797.155C234.569 795.949 236.808 789.56 234.582 782.885H234.582V782.885Z" fill="#FFB6B6"/>
<path d="M232.406 597.02C232.406 597.02 215.418 596.515 205.573 606.055C194.294 617.923 186.585 664.427 192.372 667.559L208.053 763.475L230.414 760.828L224.675 645.743L232.406 597.02V597.02V597.02Z" fill="#42CE9F"/>
<path d="M347.092 758.698L343.022 875.764H284.569L282.206 830.638L271.82 875.764H209.17L216.984 798.191L225.057 781.878L230.521 770.822L347.092 758.698Z" fill="#2F2E41"/>
<path d="M300.665 577.898L260.055 575.778L246.519 590.618C234.828 592.774 224.268 595.558 216.984 600.158C218.727 644.601 214.899 702.388 230.521 713.58L216.649 797.919C216.649 797.919 222.243 793.79 231.588 795.248C234.816 795.751 238.713 802.016 242.68 802.395C273.162 805.312 322.592 802.312 347.092 758.698L337.583 695.56L340.044 603.338C332.35 598.1 322.784 594.695 311.74 592.738L300.665 577.898V577.898H300.665Z" fill="#42CE9F"/>
<path d="M378.845 552.098C379.285 555.773 378.726 559.229 377.437 562L384.202 596.782L364.894 599.07L360.111 563.542C358.192 561.056 356.825 557.771 356.384 554.096C355.377 545.701 359.589 538.448 365.792 537.896C371.994 537.344 377.838 543.703 378.845 552.098V552.098H378.845H378.845Z" fill="#FFB6B6"/>
<path d="M314.653 605.996C312.632 608.565 313.195 611.453 312.712 614.923C310.663 629.653 343.433 673.181 366.108 678.193C369.084 678.851 370.779 681.616 373.782 682.172H373.782C382.678 683.819 390.962 677.736 390.482 669.908L384.322 569.516L358.446 577.119L360.103 629.24C359.938 618.442 348.427 607.448 339.708 602.875C339.708 602.875 322.048 596.597 314.653 605.996L314.653 605.996Z" fill="#42CE9F"/>
<path d="M284.574 573.035C304.33 573.035 320.345 559.24 320.345 542.222C320.345 525.205 304.33 511.41 284.574 511.41C264.819 511.41 248.804 525.205 248.804 542.222C248.804 559.24 264.819 573.035 284.574 573.035Z" fill="#FFB6B6"/>
<path d="M317.893 519.597C317.585 519.661 322.602 515.449 322.815 515.357C327.738 513.237 322.68 533.96 319.124 533.377C310.374 531.946 306.596 529.105 303.2 536.197C302.252 538.168 301.662 540.394 299.816 541.804C297.281 543.723 293.072 543.564 291.005 545.853C289.343 547.698 289.823 550.412 291.054 552.489C292.284 554.577 294.155 556.348 295.275 558.478C296.53 560.874 291.177 568.496 289.134 572.778V572.789L289.122 572.814C288.579 573.937 287.289 570.701 285.927 570.378C284.298 569.992 281.897 573.306 279.302 572.704C279.289 572.704 279.277 572.693 279.265 572.693C276.791 572.1 274.035 571.464 271.303 570.828H271.29C263.599 569.026 261.655 571.612 261.286 571.538L256.511 567.234C254.872 566.206 255.058 562.889 253.902 561.998C252.957 561.269 250.601 562.953 249.907 562.252C246.503 558.818 245.72 555.382 243.713 548.599C241.879 542.398 238.077 523.837 245.891 522.999C253.262 522.204 247.872 513.364 255.293 513.693C254.85 512.081 255.674 510.353 257.016 509.166C258.345 507.968 260.117 507.226 261.901 506.59C270.7 503.495 269.235 500.835 278.514 502.637C279.437 501.524 291.272 498.622 292.946 498.993C293.069 499.014 290.365 503.538 296.973 502.637C296.727 503.94 300.329 501.113 300.665 505.817C307.713 502.173 311.506 510.894 311.74 512.177C312.048 513.777 309.242 512.961 311.112 513.205C312.22 513.353 314.115 515.293 313.931 516.258C314.73 515.325 315.53 514.403 316.342 513.47C316.49 513.481 316.625 513.502 316.773 513.523C320.514 514.138 316.225 524.672 316.379 521.388C316.662 515.357 321.622 518.887 317.893 519.597H317.893V519.597Z" fill="#2F2E41"/>
<path d="M774.157 513.28C772.835 522.637 771.391 531.981 769.825 541.31C769.189 545.099 768.516 548.937 766.747 552.448C765.539 554.846 763.847 557.035 762.164 559.209C760.176 561.779 758.154 564.381 755.454 566.412C752.753 568.443 749.245 569.87 745.671 569.631C755.155 564.132 761.528 554.831 762.535 545.022C763.009 540.411 762.359 535.777 762.235 531.149C762.11 526.521 762.56 521.733 765.038 517.626C767.517 513.519 772.413 510.231 777.785 510.348L774.157 513.28H774.157V513.28Z" fill="#2F2E41"/>
<path d="M678.045 712.853C670.328 718.244 660.844 719.185 656.862 714.955C652.879 710.725 655.906 702.926 663.622 697.535C667 695.175 670.716 693.668 674.162 693.074L707.191 670.584L719.113 684.16L685.287 704.89C683.901 707.671 681.422 710.493 678.045 712.853H678.045L678.045 712.853L678.045 712.853Z" fill="#A0616A"/>
<path d="M684.284 682.321L733.499 642.096L738.421 638.916C738.421 638.916 766.673 615.207 773.988 614.664C777.087 614.434 780.185 615.1 782.795 616.56C787.013 618.916 789.197 622.793 789.197 626.701C789.197 629.966 787.67 633.247 784.544 635.664L739.488 670.506L720.32 685.327L696.482 703.765L694.058 699.513L685.864 685.105L684.284 682.321V682.321L684.284 682.321H684.284Z" fill="#42CE9F"/>
<path d="M789.518 655.098L740.241 668.099C748.491 670.101 751.945 713.404 744.268 714.749C744.268 714.749 825.936 719.752 821.479 714.749C816.047 708.649 823.333 668.117 826.806 668.099L789.518 655.098V655.098Z" fill="#A0616A"/>
<path d="M855.089 875.767L850.782 830.992C850.782 814.975 849.576 800.506 847.644 787.605C839.903 735.823 820.497 709.28 820.497 709.28H747.891C747.793 709.376 747.695 709.45 747.596 709.545L747.584 709.556C730.454 725.064 721.544 764.062 717.582 787.605C715.699 798.81 714.936 806.516 714.936 806.516L707.836 860.874L712.967 875.767H755.213L754.549 872.576L781.733 787.605L782.065 786.566L782.36 787.605L807.563 875.767H855.089V875.767V875.767Z" fill="#2F2E41"/>
<path d="M749.379 629.269L764.722 602.591L777.649 583.209L788.103 574.032H816.713L819.376 583.209L835.357 590.857L841.009 629.095L820.871 712.057C796.9 695.232 747.493 690.573 747.493 690.573L739.488 670.506L734.197 646.332L733.557 643.441L749.379 629.269V629.269V629.269Z" fill="#42CE9F"/>
<path d="M747.539 677.527C737.607 677.285 729.702 672.675 729.881 667.231C730.06 661.787 738.257 657.57 748.188 657.813C752.535 657.919 756.494 658.862 759.557 660.346L801.624 661.829L800.396 678.819L759.056 675.554C755.901 676.885 751.886 677.634 747.539 677.527V677.527L747.539 677.527V677.527Z" fill="#A0616A"/>
<path d="M801.336 619.536L841.018 653.472L771.898 659.569L755.835 679.031L852.177 681.783C860.869 684.449 870.128 679.275 870.844 671.351V671.351C871.085 668.675 851.293 600.783 839.311 594.48C825.267 587.093 801.336 619.536 801.336 619.536L809.175 608.297L801.336 619.536V619.536Z" fill="#42CE9F"/>
<path d="M828.901 540.734C829.19 525.32 814.917 512.623 797.023 512.374C779.128 512.126 764.388 524.42 764.099 539.834C763.811 555.248 778.083 567.945 795.978 568.194C813.872 568.442 828.613 556.148 828.901 540.734Z" fill="#A0616A"/>
<path d="M867.634 627.255C866.822 629.905 860.496 631.273 859.02 634.675C854.319 636.986 856.866 618.107 854.971 616.867C853.506 615.924 853.113 618.203 852.78 616.242C851.525 608.885 843.317 610.528 837.238 609.341C836.549 608.186 836.02 607.062 835.675 605.97C835.06 603.998 832.254 603.309 830.593 604.762C829.842 604.189 829.301 602.165 828.772 600.14C828.39 598.667 828.009 597.193 827.566 596.26L823.332 588.035L824.698 594.161C821.929 593.303 819.136 594.193 817.524 591.246C815.456 587.462 814.632 583.031 816.133 579.056C817.499 575.452 819.801 568.233 822.397 562.255C819.456 564.089 815.924 565.424 811.826 566.092C813.278 563.718 814.755 561.301 815.37 558.661C815.973 556.022 815.604 553.086 813.66 550.987C812.06 549.259 809.697 549.694 807.704 548.305C806.153 547.224 804.812 544.457 803.877 542.941C807.864 554.358 810.879 566.484 805.809 577.381C802.301 584.929 794.918 591.066 786.058 593.854C790.771 590.95 795.373 587.854 798.905 583.911C802.683 579.682 805.144 574.339 804.393 569.039C803.212 560.718 785.295 534.398 783.092 529.225C784.298 534.281 783.83 538.224 780.655 540.397C779.831 533.062 770.552 533.73 765.494 530.794C765.494 530.794 761.581 511.745 770.761 511.628C775.191 511.575 779.831 502.608 783.855 501.007C790.279 498.452 794.216 500.191 801.342 500.382C808.454 500.562 815.284 503.201 819.628 508.045C821.905 510.579 822.742 508.565 826.163 510.144C829.411 511.639 831.602 510.25 835.281 510.346C842.653 510.515 849.802 513.907 853.937 519.154C858.072 524.412 860.619 523.925 858.983 532.055C858.958 532.15 858.958 532.341 858.983 532.627C859.881 545.432 857.58 558.269 851.685 570.057C849.864 573.682 858.773 577.424 858.76 581.95C858.748 587.208 848.916 591.999 849.827 594.246C852.436 605.069 867.092 602.663 863.634 620.779C863.351 622.252 868.175 625.485 867.634 627.255V627.255Z" fill="#2F2E41"/>
<path d="M777.859 594.109C778.13 594.035 778.4 593.95 778.671 593.855C778.327 594.067 777.994 594.268 777.65 594.48L777.859 594.109H777.859Z" fill="#2F2E41"/>
<path d="M823.504 504.802C819.979 505.253 816.398 500.216 818.4 493.229C822.761 498.974 824.991 505.441 825.341 512.545L822.991 513.173L823.504 504.802V504.802Z" fill="#42CE9F"/>
<path d="M841.514 498.281C839.109 505.624 826.893 510.537 824.735 507.982L824.488 512.361L822.978 510.687C827.359 505.075 833.331 500.77 841.514 498.281H841.514V498.281Z" fill="#42CE9F"/>
<path d="M573.263 696.277C573.263 693.838 575.567 691.853 578.4 691.853H660.954C663.786 691.853 666.09 693.838 666.09 696.277C666.09 698.717 663.786 700.702 660.954 700.702H578.4C575.567 700.702 573.263 698.717 573.263 696.277Z" fill="#E6E7E8"/>
<path d="M573.263 725.958C573.263 723.518 575.567 721.533 578.4 721.533H660.954C663.786 721.533 666.09 723.518 666.09 725.958C666.09 728.397 663.786 730.382 660.954 730.382H578.4C575.567 730.382 573.263 728.397 573.263 725.958Z" fill="#E6E7E8"/>
<path d="M513.974 715.677C511.142 715.677 508.837 713.692 508.837 711.252C508.837 708.813 511.142 706.828 513.974 706.828H660.954C663.786 706.828 666.09 708.813 666.09 711.252C666.09 713.692 663.786 715.677 660.954 715.677H513.974Z" fill="#E6E7E8"/>
<path d="M485.116 584.685L495.56 581.183C488.493 580.354 479.455 577.237 472.903 574.174C475.551 580.176 477.926 588.309 477.934 594.452L483.286 586.122C502.247 609.378 502.07 638.639 482.556 656.422L484.344 657.879C504.728 639.303 504.93 608.8 485.116 584.685Z" fill="#3F3D56"/>
<path d="M549.661 715.757H485.67C482.956 715.757 480.747 713.855 480.747 711.517C480.747 709.179 482.956 707.277 485.67 707.277H549.661C552.375 707.277 554.583 709.179 554.583 711.517C554.583 713.855 552.375 715.757 549.661 715.757Z" fill="#42CE9F"/>
<path d="M477.623 655.988C484.086 663.27 496.178 664.661 504.633 659.094C513.087 653.527 514.701 643.111 508.239 635.828C501.776 628.546 489.683 627.155 481.229 632.722C472.775 638.289 471.161 648.705 477.623 655.988Z" fill="#3F3D56"/>
<path d="M444.731 506.238C451.294 506.238 456.615 501.655 456.615 496.001C456.615 490.347 451.294 485.764 444.731 485.764C438.167 485.764 432.846 490.347 432.846 496.001C432.846 501.655 438.167 506.238 444.731 506.238Z" fill="#E6E7E8"/>
<path d="M583.788 683.261C590.351 683.261 595.672 678.678 595.672 673.024C595.672 667.371 590.351 662.787 583.788 662.787C577.224 662.787 571.904 667.371 571.904 673.024C571.904 678.678 577.224 683.261 583.788 683.261Z" fill="#E6E7E8"/>
</g>
<defs>
<clipPath id="clip0_5_551">
<rect width="680.446" height="390.003" fill="white" transform="translate(190.399 485.764)"/>
</clipPath>
</defs>
</svg>
